<svg xmlns="http://www.w3.org/2000/svg" width="320" height="320" viewBox="-20 -40 320 320" fill="none">
    <!-- Main background circle -->
    <circle cx="128" cy="128" r="128" fill="#1890D5" stroke="white" stroke-width="12" />
    
    <!-- Small top-right dot mathematically positioned to touch borders -->
    <circle cx="252" cy="4" r="36" fill="#1890D5" stroke="white" stroke-width="12" />

    <!-- Inner white 'g' logo -->
    <path d="M 151.33,56.61 V 69.41 C 143.28,58.16 135.07,53.73 123.07,53.73 C 95.22,53.73 75.49,76.91 75.49,111.74 C 75.49,139.94 90.81,167.69 122.91,167.69 C 136.97,167.69 145.18,162.95 151.33,152.61 V 167.22 C 151.33,183.05 141.41,192.07 125.61,192.07 C 111.86,192.07 103.5,184.5 103.34,172.62 H 75.8 C 76.27,196.74 94.83,214.73 126.62,214.73 C 159.81,214.73 180.47,194.61 180.47,166.09 V 56.61 H 151.33 Z M 127.72,143.88 C 112.72,143.88 105.3,130.61 105.3,112.45 C 105.3,93.06 113.03,78.14 127.72,78.14 C 143.44,78.14 151.33,91.1 151.33,112.14 C 151.33,130.92 142.42,143.88 127.72,143.88 Z" fill="white"/>
</svg>